PathFileType	4	(x/y/z)	S10_M20_T35
DataRate	CameraRate	NumFrames	NumMarkers	Units	OrigDataRate	OrigDataStartFrame	OrigNumFrames
240	240	4	51	mm	240	141	563
Frame#	Time	Sternum			R.Acromium			L.Acromium			Top.Head			R.ASIS			L.ASIS			R.PSIS			L.PSIS			R.Great.Tro			L.Great.Tro			R.Iliac.Crest			L.Iliac.Crest			V.Sacral			R.Thigh.Upper.Post			R.Thigh.Lower.Ant			R.Thigh.Lower.Post			R.Thigh.Upper.Ant			R.Knee.Lat			R.Knee.Med			R.Shank.Upper.Post			R.Shank.Lower.Ant			R.Shank.Lower.Post			R.Shank.Upper.Ant			R.Ankle.Lat			R.Ankle.Med			R.Heel.Upper			R.Heel.Med			R.Heel.Lat			R.Toe.Lat			R.Toe.Med			R.Toe.Tip			L.Thigh.Upper.Post			L.Thigh.Lower.Ant			L.Thigh.Lower.Post			L.Thigh.Upper.Ant			L.Knee.Lat			L.Knee.Med			L.Shank.Upper.Post			L.Shank.Lower.Ant			L.Shank.Lower.Post			L.Shank.Upper.Ant			L.Ankle.Lat			L.Ankle.Med			L.Heel.Upper			L.Heel.Med			L.Heel.Lat			L.Toe.Lat			L.Toe.Med			L.Toe.Tip			Cervical.Spine			Back			
		X1	Y1	Z1	X2	Y2	Z2	X3	Y3	Z3	X4	Y4	Z4	X5	Y5	Z5	X6	Y6	Z6	X7	Y7	Z7	X8	Y8	Z8	X9	Y9	Z9	X10	Y10	Z10	X11	Y11	Z11	X12	Y12	Z12	X13	Y13	Z13	X14	Y14	Z14	X15	Y15	Z15	X16	Y16	Z16	X17	Y17	Z17	X18	Y18	Z18	X19	Y19	Z19	X20	Y20	Z20	X21	Y21	Z21	X22	Y22	Z22	X23	Y23	Z23	X24	Y24	Z24	X25	Y25	Z25	X26	Y26	Z26	X27	Y27	Z27	X28	Y28	Z28	X29	Y29	Z29	X30	Y30	Z30	X31	Y31	Z31	X32	Y32	Z32	X33	Y33	Z33	X34	Y34	Z34	X35	Y35	Z35	X36	Y36	Z36	X37	Y37	Z37	X38	Y38	Z38	X39	Y39	Z39	X40	Y40	Z40	X41	Y41	Z41	X42	Y42	Z42	X43	Y43	Z43	X44	Y44	Z44	X45	Y45	Z45	X46	Y46	Z46	X47	Y47	Z47	X48	Y48	Z48	X49	Y49	Z49	X50	Y50	Z50	X51	Y51	Z51	

141	0.58333	-59.667	1264.9	332.78	-208.84	1414.4	472.67	-164.33	1439.5	169.68	-223.75	1728.7	340.13	-98.377	989.88	422.7	-115.69	1004.2	191.92	-304.06	1012.9	351.42	-305.75	1022.8	270.51	-157.89	910.05	502.01	-191.03	943.26	136.23	-192.44	1068.9	475.95	-180.8	1082.4	171.48	-328.94	986.02	314.99	-67.615	720.04	506.92	12.765	673.5	466.15	-35.323	637.17	499.76	-19.788	758.75	468.23	25.282	529.42	461	13.297	519.74	331.43	67.834	303.25	477.45	155.04	279.7	464.8	105.07	238.61	475.72	121.91	349.46	465.91	178.45	145.06	462.35	186.85	158.56	384.02	152.21	73.409	416.1	174.72	55.139	388.69	170.94	54.73	450.2	324.48	134.32	492	340.39	154.39	384.02	381.34	199.98	424.9	-309.67	698.4	154.11	-265.6	598.98	178.08	-339.09	610.15	177.79	-233.33	680.89	154.32	-334.71	513.98	188.69	-320.84	511.79	316.26	-445.19	316.76	208.39	-396.38	219.05	229.12	-456.78	241.45	225.58	-384.56	293.38	212.21	-448.93	113.15	247.38	-433.75	130.36	332.44	-523.23	91.563	296.98	-512.69	57.211	329.04	-519.33	60.98	264.88	-345.24	39.038	222.63	-315.32	41.891	331.14	-259.22	47.32	281.57	-264.1	1478	319.58	-340.81	1266.4	300.37
142	0.5875	-54.653	1263.6	332.77	-203.58	1413.2	473.08	-159.23	1438.6	170.08	-218.87	1727.7	340.66	-93.188	988.77	422.3	-111.38	1003.3	191.64	-299.14	1012	351.95	-300.96	1021.9	271.04	-152.46	909.09	501.97	-187.01	942.3	136.24	-187.05	1067.9	476.03	-176.6	1081.5	171.51	-324.21	985.18	315.65	-62.679	719.01	506.8	17.437	672.17	465.86	-30.631	636.04	499.71	-14.931	757.53	467.88	29.763	528.37	460.9	17.454	518.46	331.38	75.386	302.58	476.88	162.99	280.45	464.38	113.62	238.54	475.09	128.79	349.7	465.62	188.57	146.11	461.63	196.79	159.96	383.37	163.38	74.252	415.29	186.13	56.42	387.73	182.49	55.679	449.27	334.98	137.3	491.09	350.33	158.18	383.14	390.7	204.16	424.21	-306.13	698.01	154.41	-262.35	598.47	178.17	-335.83	609.88	178.12	-229.87	680.21	154.43	-331.83	513.67	188.9	-317.54	511.33	316.37	-443.48	317.13	208.57	-395.3	219.09	229.25	-455.54	241.87	225.75	-383	293.34	212.37	-448.55	113.54	247.49	-433.19	130.7	332.58	-522.95	92.103	297.06	-512.52	57.717	329.11	-519.18	61.503	264.94	-345.2	39.041	222.64	-315.28	41.883	331.14	-259.16	47.204	281.57	-258.9	1477.1	320.06	-335.89	1265.6	300.86
143	0.59167	-49.617	1262.3	332.73	-198.25	1412	473.51	-154.09	1437.6	170.48	-213.98	1726.6	341.22	-87.985	987.69	421.92	-107.04	1002.3	191.38	-294.2	1011.1	352.49	-296.16	1020.9	271.58	-146.99	908.15	501.95	-182.95	941.36	136.27	-181.65	1066.9	476.11	-172.38	1080.5	171.56	-319.45	984.34	316.31	-57.667	718.02	506.67	22.184	670.9	465.53	-25.845	634.95	499.64	-10.012	756.35	467.48	34.297	527.33	460.8	21.662	517.23	331.36	82.78	301.91	476.27	170.76	281.15	463.97	121.95	238.45	474.42	135.55	349.9	465.33	198.38	147.11	460.89	206.46	161.32	382.7	174.2	75.075	414.41	197.2	57.678	386.71	193.67	56.593	448.28	345.11	140.12	490.19	359.96	161.82	382.29	399.76	208.15	423.57	-302.57	697.66	154.74	-259.08	597.97	178.24	-332.54	609.63	178.46	-226.38	679.54	154.53	-328.92	513.39	189.11	-314.2	510.88	316.47	-441.72	317.52	208.75	-394.18	219.15	229.37	-454.27	242.32	225.92	-381.4	293.32	212.53	-448.14	113.95	247.6	-432.62	131.06	332.71	-522.64	92.69	297.13	-512.34	58.271	329.16	-519.01	62.07	264.99	-345.16	39.044	222.65	-315.23	41.877	331.15	-259.09	47.082	281.57	-253.66	1476.2	320.55	-330.97	1264.8	301.36
144	0.59583	-44.557	1261.1	332.67	-192.87	1410.8	473.93	-148.92	1436.7	170.89	-209.08	1725.5	341.78	-82.768	986.63	421.56	-102.66	1001.3	191.16	-289.23	1010.2	353.04	-291.35	1020	272.13	-141.5	907.22	501.95	-178.84	940.43	136.33	-176.24	1066	476.19	-168.14	1079.5	171.63	-314.67	983.49	316.98	-52.575	717.1	506.53	27.011	669.68	465.17	-20.958	633.93	499.57	-5.0268	755.22	467.04	38.894	526.32	460.71	25.929	516.05	331.34	90.019	301.25	475.62	178.34	281.78	463.56	130.05	238.35	473.71	142.19	350.05	465.06	207.88	148.04	460.11	215.84	162.62	382.01	184.67	75.861	413.48	207.91	58.892	385.64	204.47	57.457	447.24	354.88	142.75	489.31	369.28	165.27	381.48	408.51	211.92	423	-298.98	697.32	155.08	-255.79	597.5	178.31	-329.23	609.41	178.82	-222.88	678.89	154.62	-325.96	513.12	189.32	-310.81	510.43	316.58	-439.92	317.94	208.92	-393.04	219.24	229.49	-452.96	242.79	226.09	-379.77	293.33	212.68	-447.71	114.39	247.69	-432.02	131.45	332.83	-522.31	93.324	297.18	-512.15	58.875	329.21	-518.83	62.682	265.03	-345.12	39.047	222.66	-315.18	41.876	331.14	-259.02	46.954	281.57	-248.39	1475.3	321.06	-326.02	1264	301.88
